<?xml version="1.0" encoding="utf-8"?>
<!-- Generator: Adobe Illustrator 16.0.0, SVG Export Plug-In . SVG Version: 6.00 Build 0)  -->
<!DOCTYPE svg PUBLIC "-//W3C//DTD SVG 1.1//EN" "http://www.w3.org/Graphics/SVG/1.1/DTD/svg11.dtd">
<svg version="1.1" id="Crossicon" xmlns="http://www.w3.org/2000/svg" xmlns:xlink="http://www.w3.org/1999/xlink" x="0px" y="0px"
	 width="32px" height="32px" viewBox="0 0 32 32" enable-background="new 0 0 32 32" xml:space="preserve">
<g>
	<line fill="none" stroke="#FFFFFF" stroke-width="2" stroke-miterlimit="10" x1="5.342" y1="5.508" x2="26.338" y2="26.504"/>
	<line fill="none" stroke="#FFFFFF" stroke-width="2" stroke-miterlimit="10" x1="5.342" y1="26.504" x2="26.338" y2="5.508"/>
	
		<ellipse transform="matrix(-0.7066 -0.7076 0.7076 -0.7066 26.0812 63.6586)" fill="#FFFFFF" cx="26.238" cy="26.422" rx="0.985" ry="1.006"/>
	
		<ellipse transform="matrix(-0.7066 -0.7076 0.7076 -0.7066 5.102 12.9601)" fill="#FFFFFF" cx="5.238" cy="5.422" rx="0.985" ry="1.006"/>
	
		<ellipse transform="matrix(-0.7066 -0.7076 0.7076 -0.7066 -9.665 49.0229)" fill="#FFFFFF" cx="5.331" cy="26.515" rx="0.983" ry="1.006"/>
	<path fill="#FFFFFF" d="M25.607,4.816c-0.383,0.385-0.382,1.016,0.008,1.406c0.391,0.389,1.021,0.392,1.406,0.008
		c0.387-0.389,0.386-1.018-0.008-1.408C26.628,4.433,25.998,4.429,25.607,4.816z"/>
</g>
</svg>
