<?xml version="1.0" encoding="utf-8"?>
<!-- Generator: Adobe Illustrator 16.0.0, SVG Export Plug-In . SVG Version: 6.00 Build 0)  -->
<!DOCTYPE svg PUBLIC "-//W3C//DTD SVG 1.1//EN" "http://www.w3.org/Graphics/SVG/1.1/DTD/svg11.dtd">
<svg version="1.1" id="LogoRW" xmlns="http://www.w3.org/2000/svg" xmlns:xlink="http://www.w3.org/1999/xlink" x="0px" y="0px"
	 width="64px" height="64px" viewBox="0 0 64 64" enable-background="new 0 0 64 64" xml:space="preserve">
<g>
	<g>
		<g>
			<path fill="#FFFFFF" d="M5.725,53.32c0-6.149,0-12.299,0-18.446c0-7.906,0-15.811,0-23.716c0-0.033,0-0.065,0-0.1
				c-0.467,0.466-0.934,0.934-1.401,1.4c5.638-0.486,12.054-0.492,16.679,3.254c1.107,0.895,1.961,1.89,2.646,3.094
				c0.525,0.927,0.837,1.825,1.02,3.008c-0.047-0.323,0.023,0.325,0.027,0.434c0.017,0.278,0.01,0.558,0,0.836
				c-0.016,0.738-0.084,1.304-0.214,1.968c-0.275,1.395-0.779,2.568-1.561,3.744c-1.818,2.72-5.217,4.546-8.337,5.282
				c-3.215,0.763-6.792,1.074-10.091,0.801c-0.762-0.064-1.4,0.686-1.4,1.402c0,0.811,0.643,1.336,1.4,1.4
				c3.342,0.274,6.868-0.121,10.147-0.755c3.439-0.667,6.894-2.471,9.326-5.004c3.887-4.044,4.745-10.621,1.606-15.333
				c-2.455-3.681-6.811-5.998-11.106-6.71C11.146,9.334,7.672,9.37,4.324,9.658c-0.761,0.065-1.4,0.586-1.4,1.4
				c0,7.686,0,15.372,0,23.06c0,6.353,0,12.703,0,19.056c0,0.047,0,0.099,0,0.146C2.924,55.127,5.725,55.127,5.725,53.32
				L5.725,53.32z"/>
		</g>
	</g>
	<g>
		<g>
			<g>
				<path fill="#FFFFFF" d="M15.304,36.232c5.928,3.526,10.038,10.099,10.262,17.03c0.046,1.29,1.994,2.047,2.611,0.707
					c2.801-6.081,5.601-12.158,8.403-18.239c0.318-0.696,0.201-1.503-0.503-1.917c-0.608-0.357-1.598-0.191-1.917,0.502
					c-2.8,6.081-5.604,12.162-8.402,18.24c0.87,0.238,1.74,0.471,2.609,0.707c-0.258-7.92-4.864-15.412-11.652-19.449
					C15.159,32.886,13.751,35.309,15.304,36.232L15.304,36.232z"/>
			</g>
		</g>
	</g>
	<g>
		<g>
			<path fill="#FFFFFF" d="M58.299,11.086c-2.067,6.377-4.132,12.755-6.199,19.13c-2.404,7.43-4.809,14.859-7.217,22.29
				c-0.041,0.128,1.583,0.163,2.436,0.05c-3.576-6.07-7.148-12.139-10.721-18.209c-0.005-0.01-0.013-0.021-0.018-0.031
				c-0.917-1.555-3.336-0.146-2.42,1.415c3.572,6.07,7.145,12.14,10.719,18.21c0.007,0.01,0.013,0.019,0.02,0.029
				c0.635,1.082,2.192,0.804,2.561-0.333c2.064-6.378,4.13-12.753,6.191-19.131c2.408-7.429,4.816-14.859,7.222-22.288
				C60.916,12.09,60.956,11.96,61,11.83C61.558,10.107,58.849,9.375,58.299,11.086L58.299,11.086z"/>
		</g>
	</g>
</g>
</svg>
